<svg xmlns:inkscape="http://www.inkscape.org/namespaces/inkscape" xmlns:sodipodi="http://sodipodi.sourceforge.net/DTD/sodipodi-0.dtd" xmlns="http://www.w3.org/2000/svg" xmlns:svg="http://www.w3.org/2000/svg" version="1.1" viewBox="0 0 546.27496 825.2481875" x="0px" y="0px"><g transform="translate(-371.10264,-385.5244)"><path style="" d="m 605.95878,1044.2888 c -19.96247,-3.0639 -35.70969,-9.8897 -46.67711,-20.2327 -11.6398,-10.9772 -16.88716,-21.6949 -18.98687,-38.78063 -1.91376,-15.57262 0.3634,-28.72637 10.02816,-57.92645 10.40039,-31.42265 22.41315,-95.10087 30.08653,-159.48522 2.21048,-18.54726 7.00718,-65.3971 6.71965,-65.63149 -0.0937,-0.0764 -10.52036,0.18354 -23.17036,0.5776 -26.83389,0.8359 -67.70951,-0.2679 -88.7658,-2.39701 -43.97202,-4.44626 -68.33787,-13.62388 -85.96007,-32.37766 -8.03951,-8.55577 -11.88359,-14.94008 -15.45708,-25.67144 -2.35577,-7.07449 -2.66503,-9.5618 -2.67315,-21.5 -0.0111,-16.3715 2.08321,-25.49932 9.29258,-40.5 13.85537,-28.82913 40.37311,-53.3807 77.1678,-71.44616 7.48236,-3.67369 14.90736,-7.6974 16.5,-8.94158 4.2233,-3.29925 13.874,-14.38138 28.83528,-33.11226 24.67587,-30.89312 35.93099,-42.09632 55.34862,-55.09329 45.41355,-30.39704 101.69006,-34.66571 149.88799,-11.36925 24.05967,11.62924 42.93874,28.11279 73.23681,63.94399 10.22286,12.08979 22.02619,25.42896 26.22961,29.64259 6.88478,6.90149 9.06623,8.35507 22,14.65944 47.00046,22.90962 78.32767,57.42183 86.42934,95.21652 1.84847,8.62321 1.78348,25.86095 -0.12819,34 -2.4604,10.47527 -8.47544,21.71068 -15.93876,29.77175 -23.84962,25.7598 -63.37845,35.43561 -145.00498,35.49413 -15.95,0.0114 -35.8414,-0.31864 -44.2031,-0.7335 l -15.2031,-0.75428 -0.49916,2.36095 c -0.93914,4.44206 -2.60129,49.33838 -2.59796,70.17356 0.005,32.75019 2.68064,62.69026 9.08666,101.68739 4.12884,25.1346 7.2505,38.77015 12.93485,56.5 6.81519,21.25702 8.29324,28.90277 8.31261,43 0.0284,20.65703 -5.34387,34.6343 -18.28652,47.5769 -11.54011,11.5401 -26.35028,18.0588 -48.67312,21.4235 -12.22712,1.8429 -37.62231,1.8045 -49.87116,-0.075 z m 36.18356,-27.0207 c 6.91417,-1.8962 12.94657,-6.72 16.6519,-13.3158 2.53209,-4.50726 3.11295,-6.80097 3.47653,-13.72798 0.481,-9.16422 -0.43673,-13.99069 -4.86356,-25.57826 -2.31307,-6.05465 -2.94843,-9.32815 -2.94843,-15.19098 0,-7.7016 1.30448,-10.8189 2.34669,-5.60785 0.3246,1.62303 3.53434,8.92822 7.13275,16.23377 5.16039,10.47668 6.78937,14.92006 7.71085,21.0328 1.85203,12.28569 -1.11485,26.3492 -6.96179,33 -2.16633,2.4642 -0.15403,2.289 6.86271,-0.5976 12.20113,-5.0192 20.20211,-13.56772 23.46961,-25.07562 1.2789,-4.50422 1.5679,-8.45704 1.20635,-16.5 -0.40853,-9.08795 -1.11837,-12.54748 -5.04271,-24.57678 -5.88581,-18.0418 -8.00033,-26.05965 -11.07652,-42 -5.72303,-29.65589 -10.56626,-65.47401 -12.64282,-93.5 -1.49685,-20.20207 -1.21153,-71.04295 0.58463,-104.17522 2.10466,-38.82288 1.77955,-48.51364 -1.8782,-55.98532 -6.71179,-13.71017 -21.21057,-19.21711 -33.71155,-12.80436 -7.63509,3.91665 -14.0348,13.25847 -15.38981,22.4649 -0.3238,2.2 -1.51274,15.25 -2.64209,29 -2.8974,35.27613 -10.34715,101.60418 -14.53814,129.43864 -7.3703,48.94986 -17.17867,95.30062 -25.43731,120.20742 -7.20567,21.73121 -8.35457,27.40094 -7.81964,38.5894 0.76892,16.08275 7.75579,26.75584 22.03718,33.66384 3.97523,1.9229 7.37721,3.3466 7.55995,3.1639 0.18275,-0.1828 -1.00258,-2.4371 -2.63406,-5.0097 -3.90887,-6.1636 -5.57682,-13.26554 -5.41432,-23.0535 0.16183,-9.74832 2.83134,-18.8243 8.80783,-29.94548 2.38066,-4.42999 4.63643,-9.74699 5.01281,-11.81557 0.92592,-5.08884 2.07278,-5.48311 2.81897,-0.96909 1.19867,7.25121 0.59827,11.50851 -3.11137,22.06191 -3.33976,9.50116 -3.74648,11.7075 -3.71786,20.16823 0.0251,7.43327 0.48323,10.49003 2.10565,14.0508 7.02942,15.4276 22.9055,21.6026 42.04577,16.3535 z M 795.70399,672.80539 c 8.73268,-1.29765 22.87469,-4.85894 24.23298,-6.10245 0.57973,-0.53074 -1.8643,-0.67335 -6,-0.35011 -6.51294,0.50905 -38.64624,1.69883 -86.23583,3.19299 -11.14171,0.34981 -20.11176,0.78192 -19.93344,0.96023 0.27678,0.27678 32.85202,2.54356 53.69108,3.73615 9.18275,0.52551 25.7044,-0.16768 34.24521,-1.43681 z M 554.20878,671.7201 c 24.24249,-1.29218 31.03336,-2.84923 12.5,-2.86607 -11.98965,-0.0109 -68.38308,-1.60405 -89.25,-2.52138 -14.62484,-0.64292 -15.6634,0.17289 -3.89236,3.05753 19.30414,4.73072 29.8725,5.03606 80.64236,2.32992 z M 427.15745,661.08333 c -4.6484,-5.13643 -6.23614,-18.61043 -3.20526,-27.20085 4.99241,-14.14999 23.63592,-27.45707 55.17264,-39.38028 96.28482,-36.40277 237.69382,-35.86257 332.98114,1.27203 20.73796,8.08182 34.26314,16.03769 42.99238,25.28923 7.59174,8.04599 9.6376,12.64816 10.13572,22.80034 0.39005,7.94961 0.22003,8.87232 -2.6257,14.25 -1.67352,3.1625 -2.70282,5.75 -2.28735,5.75 1.89049,0 13.11017,-7.5761 17.48935,-11.8097 6.13795,-5.93389 9.04379,-10.45861 11.61127,-18.08005 9.67056,-28.70663 -14.54923,-68.36023 -57.26431,-93.75539 -25.33652,-15.06318 -54.24645,-25.44648 -102.79838,-36.92109 -26.39234,-6.23748 -34.49485,-8.75605 -37.67078,-11.70955 -1.99761,-1.8577 -2.09389,-2.28829 -0.80077,-3.58141 3.48059,-3.48059 22.69764,-2.37916 59.0605,3.38508 11.54402,1.82996 21.09474,3.22158 21.22383,3.09249 0.30829,-0.30828 -16.52912,-20.32748 -28.27686,-33.62038 -27.52213,-31.14206 -58.15938,-46.83374 -94.93609,-48.62405 -35.21835,-1.71444 -70.20637,13.11792 -98.18684,41.62405 -8.18634,8.34014 -34.64205,39.99988 -33.96974,40.65185 0.0861,0.0835 6.91529,-0.90547 15.17594,-2.19775 19.33009,-3.02395 49.39189,-6.45269 56.58142,-6.45348 6.58116,-7.3e-4 11.89922,1.61352 11.89922,3.6119 0,3.63507 -9.18242,6.62084 -50.5,16.42065 -62.87711,14.91337 -100.76389,33.2536 -127.5882,61.7629 -18.72368,19.89983 -28.04734,44.4161 -23.55719,61.94289 3.46329,13.51853 10.40489,22.50503 23.16392,29.9877 7.15821,4.198 9.03952,4.65245 6.18014,1.49287 z m 328.26909,-0.20038 c 10.19273,-0.53947 32.93224,-1.69195 50.53224,-2.56107 35.38483,-1.74737 35.12123,-1.68833 38.97609,-8.72968 1.08685,-1.98526 1.74479,-3.84085 1.4621,-4.12355 -0.2827,-0.28269 -11.52194,1.23721 -24.97609,3.37756 -28.13528,4.47588 -62.29394,9.4163 -78.9621,11.4204 -14.282,1.7172 -10.88364,1.87872 12.96776,0.61634 z m -200.46776,-0.7095 c -1.65,-0.21488 -13.8,-1.73576 -27,-3.37974 -22.04435,-2.74547 -75.57845,-10.18335 -83.25,-11.56652 -2.86987,-0.51743 -3.25,-0.32527 -3.25,1.64297 0,1.24856 1.64939,3.86289 3.75,5.94384 l 3.75,3.71491 30,1.27612 c 64.20083,2.73093 83.37098,3.32834 76,2.36842 z m 170.22917,-3.91382 c -0.33229,-0.33229 -1.1948,-0.36781 -1.91667,-0.0789 -0.79773,0.31922 -0.56078,0.55618 0.60417,0.60416 1.05416,0.0434 1.64479,-0.19293 1.3125,-0.52522 z m 14.34594,-2.45438 c 6.28369,-1.1322 31.44989,-5.41188 55.92489,-9.5104 24.475,-4.09852 45.175,-7.70997 46,-8.02546 1.11858,-0.42775 0.35858,-1.59423 -2.98886,-4.58744 -8.82473,-7.89086 -6.32057,-8.02682 -38.76404,2.10468 -15.81091,4.93745 -38.4221,11.70956 -50.2471,15.04913 -28.57053,8.06876 -29.3827,8.47542 -9.92489,4.96949 z m -171.57511,0.51998 c -0.55,-0.20937 -11.125,-3.14143 -23.5,-6.51569 -12.375,-3.37426 -29.7,-8.29253 -38.5,-10.92947 -8.8,-2.63695 -22.40025,-6.69913 -30.22278,-9.02707 l -14.22279,-4.23262 -4.77721,3.13547 c -6.89959,4.52845 -10.80062,7.91788 -10.01603,8.70247 0.59298,0.59298 42.34339,7.40869 79.23881,12.93565 6.6,0.98868 18.075,2.79543 25.5,4.01499 12.66425,2.08012 18.80336,2.7931 16.5,1.91627 z m 14.34071,-3.95406 c -0.27095,-0.27094 -19.45459,-9.92339 -42.63031,-21.44989 l -42.13769,-20.95727 -11.59617,4.55675 c -6.3779,2.5062 -11.38741,4.7655 -11.13225,5.02066 0.25516,0.25516 11.41957,3.75672 24.80982,7.78125 45.88224,13.79022 77.34707,23.41028 79.84589,24.41208 2.93741,1.17764 3.51026,1.30598 2.84071,0.63642 z m 158.65929,-21.23206 c 39.50078,-20.63871 42.82772,-22.51339 41.37093,-23.31193 -1.93389,-1.06006 -20.68508,-5.96338 -22.80505,-5.96338 -0.96573,0 -8.23817,5.9625 -16.16099,13.25 -17.62111,16.2081 -28.45177,25.70484 -36.66299,32.14752 -3.43304,2.69363 -6.2419,5.01944 -6.2419,5.16846 0,0.14903 4.1625,-1.99409 9.25,-4.76249 5.0875,-2.76839 19.15,-10.20607 31.25,-16.52818 z m 9.5,10.81539 c 53.15136,-16.69236 65.13401,-20.66934 65.16232,-21.62703 0.0155,-0.52568 -4.17712,-2.60284 -9.31703,-4.61592 l -9.34529,-3.66015 -16,8.30759 c -12.97701,6.73797 -49.32301,24.95022 -60.5,30.31532 -3.83267,1.83973 -1.02315,1.02311 30,-8.71981 z m -162,2.7096 c -2.475,-2.28233 -13.28938,-12.50858 -24.03195,-22.725 -10.74257,-10.21641 -20.69483,-19.60965 -22.11614,-20.87386 l -2.58419,-2.29856 -12.38386,3.07043 c -6.81112,1.68874 -13.19123,3.40229 -14.17801,3.80788 -1.3255,0.54481 6.66548,5.1039 30.59232,17.45383 17.81255,9.19402 35.94492,18.74898 40.29415,21.23325 4.34922,2.48427 8.13268,4.50895 8.40768,4.49929 0.275,-0.01 -1.525,-1.88493 -4,-4.16726 z m 139.9052,-28.14766 c 9.67714,-8.71604 17.72641,-16.40644 17.88727,-17.08977 0.1986,-0.84367 -2.94778,-1.81158 -9.80349,-3.01582 -5.55278,-0.97537 -10.23779,-1.60998 -10.41115,-1.41023 -0.17336,0.19975 -5.63397,7.78818 -12.13469,16.86318 -6.50072,9.075 -14.24144,19.78131 -17.20159,23.7918 -4.59588,6.22661 -5.28623,7.72827 -4.72584,10.27971 l 0.65625,2.98792 9.06922,-8.27972 c 4.98807,-4.55384 16.98688,-15.41102 26.66402,-24.12707 z m -131.8556,12.62498 c -2.13807,-3.17769 -7.50081,-11.66176 -11.9172,-18.85348 -4.41639,-7.19172 -8.84038,-14.07045 -9.8311,-15.28605 l -1.8013,-2.21019 -10.76614,1.73762 c -5.92138,0.95569 -10.64638,2.00619 -10.5,2.33446 0.14637,0.32826 10.36678,10.33669 22.712,22.24094 l 22.44586,21.64409 1.77264,-2.91489 c 1.77152,-2.91302 1.77016,-2.91859 -2.11476,-8.6925 z m 105.16715,-15.06444 c 14.21678,-20.0095 14.63272,-20.73578 12.2433,-21.37849 -2.00213,-0.53853 -15.44697,-2.18806 -18.79149,-2.3055 -0.4573,-0.0161 -4.11344,8.29581 -8.12477,18.47081 l -7.29333,18.5 3.12477,3.66535 c 1.71862,2.01595 3.34977,3.68688 3.62477,3.71319 0.275,0.0263 7.12254,-9.27311 15.21675,-20.66536 z m -91.78849,10.8617 2.80244,-2.92512 -5.7498,-15.82488 c -3.1624,-8.70368 -5.86665,-15.96472 -6.00945,-16.13564 -0.1428,-0.17092 -4.15596,0.005 -8.91812,0.39179 -7.01657,0.56932 -8.55184,0.98046 -8.0961,2.1681 0.55116,1.4363 14.46794,24.10534 19.33874,31.50087 1.35839,2.0625 2.77581,3.75 3.14983,3.75 0.37401,0 1.94112,-1.3163 3.48246,-2.92512 z m 69.26755,-19.32488 c 3.29517,-8.3875 5.81009,-15.5875 5.58869,-16 -0.22139,-0.4125 -4.58048,-0.75 -9.68686,-0.75 h -9.28433 l -2.18571,13.13761 c -1.20214,7.22569 -1.96708,13.35625 -1.69986,13.62346 0.58417,0.58417 9.81829,5.04793 10.67455,5.16006 0.33126,0.0434 3.29834,-6.78363 6.59352,-15.17113 z m -46.92336,7.71516 c 0.31244,-0.20267 -3.60047,-24.63618 -4.00573,-25.01315 -0.1467,-0.13646 -4.40243,-0.008 -9.4572,0.28526 l -9.19047,0.53335 2.31655,6.11469 c 1.2741,3.36308 3.73344,9.77123 5.4652,14.24032 l 3.14865,8.12564 5.72528,-2.05469 c 3.1489,-1.13007 5.84787,-2.13421 5.99772,-2.23142 z m 22.63586,-10.71516 c 0.96607,-5.6375 1.99319,-11.2625 2.28249,-12.5 0.52033,-2.22568 0.4106,-2.25 -10.14978,-2.25 -9.70011,0 -10.62797,0.15994 -10.15249,1.75 0.28782,0.9625 1.23337,6.025 2.10122,11.25 0.86786,5.225 1.77357,10.0625 2.0127,10.75 0.28113,0.80824 2.50479,1.25 6.29208,1.25 h 5.85731 z" fill="#000000"/></g><text x="0" y="675.19855" fill="#000000" font-size="5px" font-weight="bold" font-family="'Helvetica Neue', Helvetica, Arial-Unicode, Arial, Sans-serif">Created by Lucas Rathgeb</text><text x="0" y="680.19855" fill="#000000" font-size="5px" font-weight="bold" font-family="'Helvetica Neue', Helvetica, Arial-Unicode, Arial, Sans-serif">from the Noun Project</text></svg>